<svg width="40" height="30" viewBox="0 0 40 30" fill="none" xmlns="http://www.w3.org/2000/svg" xmlns:xlink="http://www.w3.org/1999/xlink">
<path d="M39.242,9.906C39.547,9.664 40,9.891 40,10.273L40,26.25C40,28.32 38.32,30 36.25,30L3.75,30C1.68,30 0,28.32 0,26.25L0,10.281C0,9.891 0.445,9.672 0.758,9.914C2.508,11.273 4.828,13 12.797,18.789C14.445,19.992 17.227,22.523 20,22.508C22.789,22.531 25.625,19.945 27.211,18.789C35.18,13 37.492,11.266 39.242,9.906ZM20,20C21.812,20.031 24.422,17.719 25.734,16.766C36.102,9.242 36.891,8.586 39.281,6.711C39.734,6.359 40,5.813 40,5.234L40,3.75C40,1.68 38.32,0 36.25,0L3.75,0C1.68,0 0,1.68 0,3.75L0,5.234C0,5.813 0.266,6.352 0.719,6.711C3.109,8.578 3.898,9.242 14.266,16.766C15.578,17.719 18.188,20.031 20,20Z" fill="#548E40"/>
</svg>
