<svg width="50" height="50" viewBox="0 0 50 50" fill="none" xmlns="http://www.w3.org/2000/svg" xmlns:xlink="http://www.w3.org/1999/xlink">
<path d="M18.75,45.75C19.855,45.75 20.75,44.855 20.75,43.75C20.75,42.645 19.855,41.75 18.75,41.75L18.75,45.75ZM6.25,39.583L4.25,39.583L6.25,39.583ZM10.417,6.25L10.417,4.25L10.417,6.25ZM18.75,8.25C19.855,8.25 20.75,7.355 20.75,6.25C20.75,5.145 19.855,4.25 18.75,4.25L18.75,8.25ZM18.75,41.75L10.417,41.75L10.417,45.75L18.75,45.75L18.75,41.75ZM10.417,41.75C9.842,41.75 9.291,41.522 8.885,41.115L6.056,43.944C7.213,45.1 8.781,45.75 10.417,45.75L10.417,41.75ZM8.885,41.115C8.478,40.709 8.25,40.158 8.25,39.583L4.25,39.583C4.25,41.219 4.9,42.787 6.056,43.944L8.885,41.115ZM8.25,39.583L8.25,10.417L4.25,10.417L4.25,39.583L8.25,39.583ZM8.25,10.417C8.25,9.842 8.478,9.291 8.885,8.885L6.056,6.056C4.9,7.213 4.25,8.781 4.25,10.417L8.25,10.417ZM8.885,8.885C9.291,8.478 9.842,8.25 10.417,8.25L10.417,4.25C8.781,4.25 7.213,4.9 6.056,6.056L8.885,8.885ZM10.417,8.25L18.75,8.25L18.75,4.25L10.417,4.25L10.417,8.25Z" fill="#548E40"/>
<path d="M31.919,34.002C31.138,34.784 31.138,36.05 31.919,36.831C32.7,37.612 33.967,37.612 34.748,36.831L31.919,34.002ZM43.75,25L45.164,26.414C45.945,25.633 45.945,24.367 45.164,23.586L43.75,25ZM34.748,13.169C33.967,12.388 32.7,12.388 31.919,13.169C31.138,13.95 31.138,15.217 31.919,15.998L34.748,13.169ZM34.748,36.831L45.164,26.414L42.336,23.586L31.919,34.002L34.748,36.831ZM45.164,23.586L34.748,13.169L31.919,15.998L42.336,26.414L45.164,23.586Z" fill="#548E40"/>
<line x1="18.75" y1="23" x2="43.75" y2="23" stroke="#548E40" stroke-width="2" stroke-miterlimit="3.999327" stroke-linecap="round" stroke-linejoin="round"/>
</svg>
