<svg width="40" height="40" viewBox="0 0 40 40" fill="none" xmlns="http://www.w3.org/2000/svg" xmlns:xlink="http://www.w3.org/1999/xlink">
<path d="M40,13.75C40,21.344 33.844,27.5 26.25,27.5C25.373,27.5 24.516,27.417 23.685,27.26L21.809,29.371C21.634,29.569 21.418,29.727 21.176,29.835C20.935,29.944 20.673,30 20.408,30L17.5,30L17.5,33.125C17.5,34.161 16.661,35 15.625,35L12.5,35L12.5,38.125C12.5,39.161 11.661,40 10.625,40L1.875,40C0.839,40 0,39.161 0,38.125L0,32.027C0,31.529 0.198,31.052 0.549,30.701L13.19,18.06C12.743,16.704 12.5,15.256 12.5,13.75C12.5,6.156 18.656,0 26.25,0C33.866,0 40,6.134 40,13.75ZM26.25,10C26.25,12.071 27.929,13.75 30,13.75C32.071,13.75 33.75,12.071 33.75,10C33.75,7.929 32.071,6.25 30,6.25C27.929,6.25 26.25,7.929 26.25,10Z" fill="#548E40"/>
</svg>
