<svg width="56" height="58" viewBox="0 0 56 58" fill="none" xmlns="http://www.w3.org/2000/svg" xmlns:xlink="http://www.w3.org/1999/xlink">
<path d="M38.401,49.925L38.401,45.106C38.401,42.55 37.445,40.098 35.745,38.291C34.044,36.484 31.738,35.468 29.333,35.468L11.197,35.468C8.792,35.468 6.486,36.484 4.785,38.291C3.085,40.098 2.129,42.55 2.129,45.106L2.129,49.925Z" fill="#548E40"/>
<path d="M20.265,25.83C25.273,25.83 29.333,21.516 29.333,16.193C29.333,10.87 25.273,6.555 20.265,6.555C15.257,6.555 11.197,10.87 11.197,16.193C11.197,21.516 15.257,25.83 20.265,25.83Z" fill="#548E40"/>
<path d="M50.003,49.925C50.003,51.03 50.898,51.925 52.003,51.925C53.107,51.925 54.003,51.03 54.003,49.925L50.003,49.925ZM52.003,45.106L54.003,45.106L54.003,45.105L52.003,45.106ZM45.731,33.853C44.666,33.561 43.565,34.187 43.273,35.252C42.981,36.318 43.607,37.418 44.672,37.71L45.731,33.853ZM54.003,49.925L54.003,45.106L50.003,45.106L50.003,49.925L54.003,49.925ZM54.003,45.105C54.001,42.556 53.203,40.068 51.717,38.03L48.486,40.387C49.461,41.725 50.001,43.385 50.003,45.108L54.003,45.105ZM51.717,38.03C50.23,35.991 48.129,34.511 45.731,33.853L44.672,37.71C46.165,38.12 47.511,39.051 48.486,40.387L51.717,38.03Z" fill="#548E40"/>
<path d="M36.659,4.939C35.593,4.649 34.494,5.278 34.204,6.343C33.914,7.409 34.543,8.508 35.609,8.798L36.659,4.939ZM42.952,16.205L44.952,16.205L42.952,16.205ZM35.609,23.612C34.543,23.902 33.914,25.001 34.204,26.067C34.494,27.133 35.593,27.761 36.659,27.471L35.609,23.612ZM35.609,8.798C37.105,9.206 38.455,10.137 39.433,11.475L42.663,9.116C41.171,7.073 39.064,5.593 36.659,4.939L35.609,8.798ZM39.433,11.475C40.411,12.815 40.952,14.479 40.952,16.205L44.952,16.205C44.952,13.651 44.153,11.157 42.663,9.116L39.433,11.475ZM40.952,16.205C40.952,17.931 40.411,19.595 39.433,20.935L42.663,23.294C44.153,21.253 44.952,18.759 44.952,16.205L40.952,16.205ZM39.433,20.935C38.455,22.273 37.105,23.205 35.609,23.612L36.659,27.471C39.064,26.817 41.171,25.337 42.663,23.294L39.433,20.935Z" fill="#548E40"/>
</svg>
