<svg width="30" height="30" viewBox="0 0 30 30" fill="none" xmlns="http://www.w3.org/2000/svg" xmlns:xlink="http://www.w3.org/1999/xlink">
<path d="M29.633,27.869L22.42,20.657C24.208,18.478 25.286,15.686 25.286,12.643C25.286,5.663 19.622,0 12.643,0C5.657,0 0,5.663 0,12.643C0,19.622 5.657,25.286 12.643,25.286C15.686,25.286 18.471,24.214 20.651,22.427L27.863,29.633C28.353,30.122 29.143,30.122 29.633,29.633C30.122,29.149 30.122,28.353 29.633,27.869ZM12.643,22.769C7.053,22.769 2.51,18.227 2.51,12.643C2.51,7.059 7.053,2.51 12.643,2.51C18.227,2.51 22.776,7.059 22.776,12.643C22.776,18.227 18.227,22.769 12.643,22.769Z" fill="#718EBF"/>
</svg>
