<svg width="30" height="30" viewBox="0 0 30 30" fill="none" xmlns="http://www.w3.org/2000/svg" xmlns:xlink="http://www.w3.org/1999/xlink">
<path d="M10.25,26.25C10.802,26.25 11.25,25.802 11.25,25.25C11.25,24.698 10.802,24.25 10.25,24.25L10.25,26.25ZM2.75,22.75L1.75,22.75L2.75,22.75ZM5.25,2.75L5.25,1.75L5.25,2.75ZM10.25,3.75C10.802,3.75 11.25,3.302 11.25,2.75C11.25,2.198 10.802,1.75 10.25,1.75L10.25,3.75ZM10.25,24.25L5.25,24.25L5.25,26.25L10.25,26.25L10.25,24.25ZM5.25,24.25C4.852,24.25 4.471,24.092 4.189,23.811L2.775,25.225C3.432,25.881 4.322,26.25 5.25,26.25L5.25,24.25ZM4.189,23.811C3.908,23.529 3.75,23.148 3.75,22.75L1.75,22.75C1.75,23.678 2.119,24.568 2.775,25.225L4.189,23.811ZM3.75,22.75L3.75,5.25L1.75,5.25L1.75,22.75L3.75,22.75ZM3.75,5.25C3.75,4.852 3.908,4.471 4.189,4.189L2.775,2.775C2.119,3.432 1.75,4.322 1.75,5.25L3.75,5.25ZM4.189,4.189C4.471,3.908 4.852,3.75 5.25,3.75L5.25,1.75C4.322,1.75 3.432,2.119 2.775,2.775L4.189,4.189ZM5.25,3.75L10.25,3.75L10.25,1.75L5.25,1.75L5.25,3.75Z" fill="#5F5F5F"/>
<path d="M18.293,19.543C17.902,19.933 17.902,20.567 18.293,20.957C18.683,21.348 19.317,21.348 19.707,20.957L18.293,19.543ZM25.25,14L25.957,14.707C26.348,14.317 26.348,13.683 25.957,13.293L25.25,14ZM19.707,7.043C19.317,6.652 18.683,6.652 18.293,7.043C17.902,7.433 17.902,8.067 18.293,8.457L19.707,7.043ZM19.707,20.957L25.957,14.707L24.543,13.293L18.293,19.543L19.707,20.957ZM25.957,13.293L19.707,7.043L18.293,8.457L24.543,14.707L25.957,13.293Z" fill="#5F5F5F"/>
<line x1="10.25" y1="13" x2="25.25" y2="13" stroke="#5F5F5F" stroke-width="1" stroke-miterlimit="3.999327" stroke-linecap="round" stroke-linejoin="round"/>
</svg>
