<svg width="70" height="48" viewBox="0 0 70 48" fill="none" xmlns="http://www.w3.org/2000/svg" xmlns:xlink="http://www.w3.org/1999/xlink">
<path d="M10.5,20C14.361,20 17.5,17.01 17.5,13.333C17.5,9.656 14.361,6.667 10.5,6.667C6.639,6.667 3.5,9.656 3.5,13.333C3.5,17.01 6.639,20 10.5,20ZM59.5,20C63.361,20 66.5,17.01 66.5,13.333C66.5,9.656 63.361,6.667 59.5,6.667C55.639,6.667 52.5,9.656 52.5,13.333C52.5,17.01 55.639,20 59.5,20ZM63,23.333L56,23.333C54.075,23.333 52.336,24.073 51.067,25.271C55.475,27.573 58.603,31.729 59.281,36.667L66.5,36.667C68.436,36.667 70,35.177 70,33.333L70,30C70,26.323 66.861,23.333 63,23.333ZM35,23.333C41.77,23.333 47.25,18.115 47.25,11.667C47.25,5.219 41.77,0 35,0C28.23,0 22.75,5.219 22.75,11.667C22.75,18.115 28.23,23.333 35,23.333ZM43.4,26.667L42.492,26.667C40.217,27.708 37.691,28.333 35,28.333C32.309,28.333 29.794,27.708 27.508,26.667L26.6,26.667C19.644,26.667 14,32.042 14,38.667L14,41.667C14,44.427 16.352,46.667 19.25,46.667L50.75,46.667C53.648,46.667 56,44.427 56,41.667L56,38.667C56,32.042 50.356,26.667 43.4,26.667ZM18.933,25.271C17.664,24.073 15.925,23.333 14,23.333L7,23.333C3.139,23.333 0,26.323 0,30L0,33.333C0,35.177 1.564,36.667 3.5,36.667L10.708,36.667C11.397,31.729 14.525,27.573 18.933,25.271Z" fill="#548E40"/>
</svg>
