<svg width="44" height="40" viewBox="0 0 44 40" fill="none" xmlns="http://www.w3.org/2000/svg" xmlns:xlink="http://www.w3.org/1999/xlink">
<path d="M42,2L43.527,3.291C44.03,2.697 44.142,1.865 43.814,1.158C43.487,0.452 42.779,0 42,0L42,2ZM2,2L2,0C1.221,0 0.513,0.452 0.186,1.158C-0.142,1.865 -0.03,2.697 0.473,3.291L2,2ZM18,20.92L20,20.92C20,20.447 19.832,19.99 19.527,19.629L18,20.92ZM18,34L16,34C16,34.758 16.428,35.45 17.106,35.789L18,34ZM26,38L25.106,39.789C25.726,40.099 26.462,40.066 27.051,39.701C27.641,39.337 28,38.693 28,38L26,38ZM26,20.92L24.473,19.629C24.168,19.99 24,20.447 24,20.92L26,20.92ZM42,0L2,0L2,4L42,4L42,0ZM0.473,3.291L16.473,22.211L19.527,19.629L3.527,0.709L0.473,3.291ZM16,20.92L16,34L20,34L20,20.92L16,20.92ZM17.106,35.789L25.106,39.789L26.894,36.211L18.894,32.211L17.106,35.789ZM28,38L28,20.92L24,20.92L24,38L28,38ZM27.527,22.211L43.527,3.291L40.473,0.709L24.473,19.629L27.527,22.211Z" fill="#878787"/>
</svg>
